HIERARCHY
ROOT Hips
{
	OFFSET 0.000000 95.729000 0.000000
	CHANNELS 6 Xposition Yposition Zposition Yrotation Xrotation Zrotation
	JOINT RightUpLeg
	{
		OFFSET -9.625000 -1.639000 0.000000
		CHANNELS 3 Yrotation Xrotation Zrotation
		JOINT RightLeg
		{
			OFFSET 0.000000 -41.481000 0.000000
			CHANNELS 3 Yrotation Xrotation Zrotation
			JOINT RightFoot
			{
				OFFSET 0.000000 -43.120000 0.000000
				CHANNELS 3 Yrotation Xrotation Zrotation
				End Site
				{
					OFFSET 0.000000 -7.850000 17.850000
				}
			}
		}
	}
	JOINT LeftUpLeg
	{
		OFFSET 9.625000 -1.639000 0.000000
		CHANNELS 3 Yrotation Xrotation Zrotation
		JOINT LeftLeg
		{
			OFFSET 0.000000 -43.120000 0.000000
			CHANNELS 3 Yrotation Xrotation Zrotation
			JOINT LeftFoot
			{
				OFFSET 0.000000 -43.120000 0.000000
				CHANNELS 3 Yrotation Xrotation Zrotation
				End Site
				{
					OFFSET 0.000000 -7.850000 17.850000
				}
			}
		}
	}
	JOINT Spine
	{
		OFFSET 0.000000 16.395000 0.000000
		CHANNELS 3 Yrotation Xrotation Zrotation
		JOINT Spine1
		{
			OFFSET 0.000000 10.023000 0.000000
			CHANNELS 3 Yrotation Xrotation Zrotation
			JOINT Spine2
			{
				OFFSET 0.000000 10.437000 0.000000
				CHANNELS 3 Yrotation Xrotation Zrotation
				JOINT Spine3
				{
					OFFSET 0.000000 10.023000 0.000000
					CHANNELS 3 Yrotation Xrotation Zrotation
					JOINT Neck
					{
						OFFSET 0.000000 10.713000 0.000000
						CHANNELS 3 Yrotation Xrotation Zrotation
						JOINT Head
						{
							OFFSET 0.000000 9.720000 0.000000
							CHANNELS 3 Yrotation Xrotation Zrotation
							End Site
							{
								OFFSET 0.000000 16.450000 0.000000
							}
						}
					}
					JOINT RightShoulder
					{
						OFFSET -3.275000 7.142000 0.000000
						CHANNELS 3 Yrotation Xrotation Zrotation
						JOINT RightArm
						{
							OFFSET -13.100000 0.000000 0.000000
							CHANNELS 3 Yrotation Xrotation Zrotation
							JOINT RightForeArm
							{
								OFFSET -27.250000 0.000000 0.000000
								CHANNELS 3 Yrotation Xrotation Zrotation
								JOINT RightHand
								{
									OFFSET -26.750000 0.000000 0.000000
									CHANNELS 3 Yrotation Xrotation Zrotation
									End Site
									{
										OFFSET -3.479000 0.532000 0.778000
									}
								}
							}
						}
					}
					JOINT LeftShoulder
					{
						OFFSET 3.275000 7.142000 0.000000
						CHANNELS 3 Yrotation Xrotation Zrotation
						JOINT LeftArm
						{
							OFFSET 13.100000 0.000000 0.000000
							CHANNELS 3 Yrotation Xrotation Zrotation
							JOINT LeftForeArm
							{
								OFFSET 27.250000 0.000000 0.000000
								CHANNELS 3 Yrotation Xrotation Zrotation
								JOINT LeftHand
								{
									OFFSET 26.750000 0.000000 0.000000
									CHANNELS 3 Yrotation Xrotation Zrotation
									End Site
									{
										OFFSET 3.479000 0.532000 0.778000
									}
								}
							}
						}
					}
				}
			}
		}
	}
}
MOTION
Frames: 18
Frame Time: 0.010000
12.97 94.14 7.8 -139.94 5.64 0.08 3.69 -15.42 -6.75 0.0 26.57 0.0 -4.56 -14.65 6.74 13.49 -21.49 3.79 -0.0 30.41 0.0 5.26 -10.61 -1.64 4.96 -2.93 -4.06 1.25 -0.73 -0.99 2.12 -1.17 -1.65 0.18 0.66 0.65 0.19 0.67 0.65 5.89 11.31 12.43 32.26 -3.9 -16.02 56.44 -56.32 -7.78 10.15 20.66 -9.49 -14.35 12.12 -16.73 2.03 -3.54 -5.94 -30.53 5.44 -70.95 -2.42 -3.99 -0.82 -8.39 35.59 11.11
13.11 94.05 7.8 -140.3 6.01 0.14 4.09 -16.25 -6.84 0.0 27.27 -0.0 -4.44 -14.82 6.76 13.71 -22.54 3.74 0.0 31.53 -0.0 5.01 -10.05 -1.56 5.17 -3.16 -4.14 1.31 -0.79 -1.01 2.21 -1.26 -1.68 0.16 0.67 0.65 0.17 0.67 0.65 5.59 11.45 12.45 31.81 -3.49 -16.2 55.64 -56.83 -7.45 10.15 20.36 -9.81 -14.24 12.05 -16.9 1.46 -2.93 -5.85 -30.59 5.42 -70.78 -2.08 -3.24 -0.84 -8.81 34.8 11.09
13.33 93.86 7.81 -140.89 6.57 0.09 4.74 -17.59 -6.85 -0.0 28.48 -0.0 -4.31 -15.19 6.81 13.71 -24.36 3.87 0.0 33.62 -0.0 4.75 -9.23 -1.47 4.75 -2.58 -3.75 1.2 -0.64 -0.92 2.02 -1.02 -1.53 0.21 0.61 0.61 0.21 0.61 0.61 6.03 10.25 11.66 32.23 -3.88 -17.7 54.38 -57.58 -6.81 10.12 19.92 -10.23 -14.17 11.94 -17.13 1.2 -2.85 -6.18 -30.21 4.68 -70.34 -2.19 -3.28 -0.79 -9.04 34.71 10.81
13.53 93.55 7.85 -141.56 7.29 -0.0 5.24 -19.39 -6.88 -0.0 30.18 -0.0 -3.92 -15.81 6.85 13.78 -26.68 3.98 0.0 36.31 0.0 4.64 -8.45 -1.27 4.61 -2.5 -3.46 1.16 -0.62 -0.85 1.96 -1.0 -1.41 0.23 0.58 0.58 0.23 0.58 0.58 6.18 9.69 11.15 32.07 -3.93 -18.44 53.11 -58.2 -6.0 11.4 19.73 -9.87 -15.36 11.83 -17.54 1.09 -2.75 -6.41 -30.31 4.62 -70.18 -2.42 -3.33 -0.76 -9.19 34.62 10.7
13.65 93.27 7.86 -141.98 7.8 -0.05 5.4 -20.76 -6.93 -0.0 31.62 -0.0 -3.49 -16.36 6.92 13.59 -28.34 4.1 0.0 38.33 0.0 4.63 -8.01 -1.2 4.48 -2.47 -3.26 1.13 -0.61 -0.8 1.9 -0.99 -1.33 0.24 0.56 0.56 0.25 0.56 0.57 6.3 9.34 10.81 31.98 -3.92 -18.9 52.2 -58.55 -5.43 11.45 19.48 -10.05 -15.38 11.89 -17.65 1.03 -2.72 -6.55 -30.39 4.6 -70.15 -2.68 -3.35 -0.73 -9.24 34.56 10.71
13.75 92.76 7.87 -142.72 8.42 -0.16 5.52 -22.81 -7.0 0.0 34.01 0.0 -2.63 -17.29 7.05 12.87 -30.78 4.5 -0.0 41.65 -0.0 4.69 -7.41 -1.36 4.52 -2.51 -3.03 1.14 -0.63 -0.74 1.91 -1.01 -1.24 0.24 0.55 0.55 0.25 0.55 0.55 6.24 9.11 10.53 31.46 -3.85 -19.14 53.29 -58.8 -6.11 8.44 19.15 -11.49 -13.83 11.65 -17.61 0.62 -2.34 -6.57 -30.47 4.67 -70.11 -3.29 -3.44 -0.68 -9.33 34.51 10.76
13.8 92.16 7.81 -143.51 9.09 -0.24 5.85 -25.09 -7.19 -0.0 36.89 0.0 -1.89 -18.39 7.45 12.39 -33.29 4.78 -0.0 45.09 -0.0 5.02 -6.84 -1.36 4.97 -2.92 -3.1 1.25 -0.73 -0.75 2.1 -1.18 -1.26 0.21 0.55 0.56 0.21 0.56 0.56 5.7 9.34 10.73 31.09 -3.78 -18.98 47.71 -59.2 -2.17 9.79 18.74 -11.31 -13.71 11.49 -17.8 -0.55 -1.3 -6.2 -30.5 4.72 -69.98 -4.08 -3.5 -0.64 -9.36 34.46 10.85
13.86 91.72 7.8 -144.0 9.62 -0.3 6.18 -26.78 -7.34 0.0 38.93 0.0 -1.47 -18.99 7.76 12.37 -34.48 4.85 0.0 46.54 0.0 5.44 -7.55 -1.67 4.46 -2.56 -2.61 1.12 -0.64 -0.63 1.88 -1.04 -1.06 0.26 0.51 0.52 0.26 0.51 0.53 6.31 8.51 10.02 32.41 -4.3 -20.26 45.03 -59.31 -0.27 9.71 18.48 -11.43 -13.63 11.38 -17.92 -0.11 -1.69 -6.77 -29.75 3.91 -69.76 -4.14 -2.45 -0.71 -9.35 34.43 10.99
14.0 90.81 7.78 -144.61 10.53 -0.4 6.44 -29.8 -7.53 0.0 42.71 0.0 -0.77 -20.33 7.99 10.74 -38.18 5.7 -0.0 51.31 -0.0 4.89 -5.91 -1.51 3.79 -2.27 -2.0 0.95 -0.57 -0.49 1.6 -0.93 -0.81 0.31 0.46 0.48 0.32 0.46 0.48 7.03 7.52 9.17 33.73 -4.85 -21.69 41.65 -59.36 2.27 9.5 18.13 -11.62 -13.66 11.22 -18.06 0.3 -2.0 -7.43 -30.78 4.83 -69.58 -5.58 -3.55 -0.55 -9.25 34.39 11.41
14.1 89.8 7.68 -145.12 11.39 -0.48 6.49 -32.77 -7.71 -0.0 46.56 0.0 0.08 -21.64 8.18 10.1 -41.18 6.19 -0.0 55.14 -0.0 4.74 -5.33 -1.3 3.9 -2.63 -1.92 0.98 -0.66 -0.46 1.64 -1.08 -0.78 0.32 0.45 0.47 0.32 0.45 0.47 7.08 7.34 9.04 33.64 -4.94 -21.82 38.08 -59.25 5.02 9.29 17.87 -11.75 -13.55 11.05 -18.26 -0.59 -1.18 -7.31 -31.0 4.82 -69.2 -6.49 -3.6 -0.53 -9.01 34.31 12.14
14.12 88.76 7.42 -145.66 12.04 -0.46 6.28 -36.04 -8.04 0.0 51.2 0.0 1.3 -21.63 8.92 8.77 -43.68 6.83 -0.0 58.8 -0.0 5.48 -4.76 -1.43 4.21 -3.02 -2.04 1.06 -0.76 -0.49 1.77 -1.25 -0.82 0.27 0.45 0.49 0.27 0.45 0.5 6.18 7.39 9.38 30.02 -3.81 -20.2 40.95 -60.11 3.51 9.11 17.55 -11.92 -13.41 10.79 -18.5 -1.61 -0.03 -7.17 -30.89 4.38 -68.61 -7.1 -3.19 -0.54 -8.65 34.22 13.07
14.15 87.98 7.23 -145.84 12.3 -0.41 6.02 -37.88 -8.2 0.0 54.14 0.0 2.06 -21.99 9.12 8.2 -45.03 7.22 0.0 61.06 0.0 5.56 -5.08 -1.64 3.6 -2.32 -1.49 0.9 -0.58 -0.36 1.51 -0.96 -0.6 0.32 0.39 0.44 0.32 0.39 0.45 6.84 6.27 8.45 30.64 -4.12 -21.28 39.44 -60.36 4.74 8.94 17.39 -12.02 -13.35 10.61 -18.61 -1.09 -0.68 -7.99 -30.36 3.66 -68.28 -7.24 -2.25 -0.5 -8.4 34.15 13.66
14.26 86.77 6.92 -146.12 12.91 -0.3 6.05 -40.83 -8.6 0.0 58.44 0.0 3.13 -22.31 9.54 7.36 -46.87 7.77 0.0 63.98 0.0 6.06 -6.56 -2.45 3.64 -2.51 -1.5 0.91 -0.63 -0.36 1.53 -1.04 -0.61 0.32 0.38 0.44 0.32 0.38 0.44 6.74 6.07 8.31 29.94 -3.79 -20.87 37.24 -60.56 6.67 8.5 17.18 -11.99 -13.23 10.39 -18.8 -1.72 0.0 -7.96 -29.64 2.64 -67.92 -7.42 -0.94 -0.39 -8.03 34.02 14.41
14.6 85.4 6.64 -146.37 14.43 -0.28 6.29 -44.3 -8.77 0.0 62.19 0.0 3.57 -24.12 8.99 6.47 -50.11 8.26 -0.0 67.2 -0.0 6.13 -6.39 -2.47 3.17 -2.39 -0.86 0.79 -0.6 -0.2 1.32 -1.0 -0.34 0.37 0.3 0.37 0.38 0.3 0.37 7.43 4.65 6.98 30.56 -4.33 -22.23 35.6 -60.35 8.05 8.23 17.01 -11.99 -15.54 10.11 -18.38 -2.3 0.1 -8.89 -32.6 3.76 -66.14 -8.67 -4.72 -0.72 -7.74 32.63 14.5
15.05 84.1 6.56 -146.48 15.22 -0.42 6.16 -47.0 -8.6 0.0 65.57 -0.0 3.99 -25.61 8.46 2.39 -53.41 11.0 0.0 72.05 0.0 3.78 -2.11 -0.66 3.23 -2.86 -0.83 0.81 -0.72 -0.19 1.35 -1.2 -0.33 0.37 0.29 0.37 0.38 0.29 0.37 7.42 4.46 7.02 29.57 -3.32 -20.68 31.48 -60.38 11.68 7.86 16.41 -12.29 -13.13 9.59 -19.3 -2.88 0.95 -8.87 -32.76 3.35 -65.46 -8.9 -5.17 -0.86 -7.35 33.44 15.63
15.79 81.85 5.97 -146.47 15.87 -0.31 7.66 -51.7 -9.74 0.0 72.72 0.0 5.54 -24.72 10.3 0.87 -56.3 12.5 -0.0 76.79 -0.0 3.13 -2.37 -0.18 2.92 -1.61 0.06 0.73 -0.41 0.02 1.21 -0.68 0.04 0.42 0.17 0.27 0.43 0.17 0.28 7.97 2.46 5.14 29.68 -4.32 -22.29 28.71 -60.88 14.5 9.27 17.19 -12.63 -13.08 9.49 -19.43 -3.26 -0.47 -10.16 -33.07 2.69 -64.54 -9.34 -5.91 -1.02 -6.95 33.4 17.07
16.5 79.82 5.65 -146.38 16.32 -0.28 8.21 -55.18 -10.17 -0.0 77.91 -0.0 6.39 -24.96 10.62 -0.92 -58.71 14.25 0.0 80.73 0.0 2.94 -4.17 -0.77 2.76 -1.48 0.27 0.69 -0.38 0.07 1.15 -0.63 0.12 0.44 0.15 0.25 0.44 0.14 0.25 8.21 2.03 4.66 29.7 -4.56 -22.54 27.81 -60.9 15.47 10.01 17.47 -12.87 -13.08 9.49 -19.43 -3.1 -1.1 -10.49 -33.07 2.69 -64.54 -9.34 -5.91 -1.02 -6.95 33.4 17.07
17.35 77.38 5.35 -145.99 17.5 -0.15 8.56 -60.79 -11.23 0.0 84.57 0.0 8.07 -22.67 11.6 -6.04 -63.75 18.88 0.0 87.03 0.0 0.78 0.09 1.63 2.54 -0.21 1.26 0.63 -0.06 0.32 1.06 -0.1 0.53 0.46 -0.01 0.14 0.46 -0.01 0.14 8.35 -0.52 2.55 28.71 -2.44 -21.2 19.29 -60.14 24.63 5.9 16.18 -11.44 -11.19 7.34 -22.36 -5.46 -0.02 -12.11 -34.48 0.98 -60.46 -13.37 -9.5 -1.51 -4.79 32.87 22.23
